# xmcd CD database file
#
# Track frame offsets:
#	150
#	14074
#	26404
#	49247
#	84080
#	103495
#	115220
#	129836
#	162189
#	200685
#	228247
#	254165
#
# Disc length: 3646 seconds
#
# Revision: 2
# Processed by: cddbd v1.5.2PL0 Copyright (c) Steve Scherf et al.
# Submitted via: CDex 1.51
#
DISCID=a00e3c0c
DTITLE=Various Artist - Midnight Jazz
DYEAR=1900
DGENRE=Jazz
TTITLE0=I Can't Get Started/Teddy Wilson
TTITLE1=Prelude To A Kiss/Teddy Wilson
TTITLE2=Don't Blame Me/Stephane Grapelli
TTITLE3=The Man I Love/Teddy Wilson
TTITLE4=Star Eyes/Stephane Grapelli
TTITLE5=Moonlight In Vermont/Stephane Grapelli
TTITLE6=Love Song/Stephane Grapelli
TTITLE7=Song For Johnny Hodges/Gerry Mulligan
TTITLE8=Blues For Gerry/Gerry Mulligan
TTITLE9=Line For Lyons/Gerry Mulligan
TTITLE10=Walking Shoes/Gerry Mulligan
TTITLE11=I Wish You Love/Bill Dodget
EXTD=
EXTT0=
EXTT1=
EXTT2=
EXTT3=
EXTT4=
EXTT5=
EXTT6=
EXTT7=
EXTT8=
EXTT9=
EXTT10=
EXTT11=
PLAYORDER=
